<svg xmlns="http://www.w3.org/2000/svg" viewBox="0 0 383.14 235.2"><defs><style>.cls-1{fill:#fff;}</style></defs><g id="Layer_2" data-name="Layer 2"><g id="Layer_1-2" data-name="Layer 1"><path class="cls-1" d="M383.14,133.32c-.51,1.39-1,2.78-1.53,4.17-2.86,8-8.5,13-16.43,15.64a9.41,9.41,0,0,1-1.83.36,7.28,7.28,0,0,1-1.14,0c0-9.06.11-18,0-26.93-.24-15.82-9.72-28.57-24.36-32.5a42.94,42.94,0,0,0-11.08-1.28q-77.28-.12-154.56-.06-59,0-117.89,0a32.84,32.84,0,0,0-32.4,25.4,25.94,25.94,0,0,0-.89,5.52c-.16,5-.16,10-.18,15s0,9.7,0,15A26,26,0,0,1,17.4,153,24.53,24.53,0,0,1,0,129.75Q0,77.18,0,24.59A24.55,24.55,0,0,1,23.44.1C25.06,0,26.68,0,28.31,0Q191.48,0,354.65,0a38.93,38.93,0,0,1,8.92.6c9.52,2.25,15.65,8.31,18.59,17.62.3.94.65,1.87,1,2.8ZM24.37,50.19A15.65,15.65,0,0,0,40.14,66.12a15.87,15.87,0,0,0,16-15.8A16.08,16.08,0,0,0,40.46,34.5,15.85,15.85,0,0,0,24.37,50.19Z"/><path class="cls-1" d="M191.52,154.17H40.69c-1.24,0-2.49.05-3.74,0-3.37-.2-5.41-2.07-5.45-5.39-.09-8.23-.29-16.48.07-24.69.47-10.84,10.26-20.13,21.11-20.54,1.5-.06,3,0,4.49,0q134.18,0,268.34,0a39.27,39.27,0,0,1,7.45.37c10.91,2.13,18.22,10.95,18.47,22.28.15,7,.06,14,0,21,0,5.4-1.75,7.06-7.24,7.06Q267.86,154.19,191.52,154.17Z"/><path class="cls-1" d="M221.42,188.6c.16,6.66-2.37,12.37-6.15,17.66a54.88,54.88,0,0,0-3.92,5.9c-2.56,4.81-2.47,9.45,1.11,13.92,1,1.25,2,3.24,1.68,4.64a6.87,6.87,0,0,1-3.29,4c-1.79.93-3.88.34-5.44-1.3-5.69-6-7.82-13.06-5.09-21a42.28,42.28,0,0,1,5.73-10.8c6-8.26,7-16.49,1.2-25.24-2-3-1.43-5.87,1.06-7.52s5.38-1.1,7.4,1.84C219.4,176.13,221.6,182,221.42,188.6Z"/><path class="cls-1" d="M259.32,188.33a30.74,30.74,0,0,1-5.6,16.86,66.87,66.87,0,0,0-4.54,6.83c-2.58,4.78-2.68,9.51,1,13.91.24.29.49.57.7.88,1.7,2.52,1.49,5.3-.53,7.08a5.25,5.25,0,0,1-7.37-.63c-5.53-5.75-7.71-12.6-5.12-20.22a43.32,43.32,0,0,1,6.25-11.76c5.88-7.9,6.15-17.45,1-24.65-2.05-2.86-1.51-6,.85-7.61,2.63-1.85,5.49-1.15,7.63,1.94A32.13,32.13,0,0,1,259.32,188.33Z"/><path class="cls-1" d="M161.47,217.39c.05-4.93,2.55-10,5.94-14.74a45.7,45.7,0,0,0,3.76-5.57c3.27-6.35,3-12.69-.57-18.88-.43-.75-1-1.43-1.43-2.19a5.07,5.07,0,0,1,1.27-7,4.8,4.8,0,0,1,7,1c4.7,6.31,7.05,13.39,6.16,21.34A32.12,32.12,0,0,1,177,207a37.26,37.26,0,0,0-3.59,5.66c-2.29,4.63-2.14,9.13,1.35,13.23.16.19.32.38.46.58,1.89,2.66,1.76,5.59-.31,7.4s-5.1,1.54-7.37-.66C163.5,229.34,161.32,224,161.47,217.39Z"/><path class="cls-1" d="M296.94,188c-.07,8-2.92,14.19-7.24,19.89a30,30,0,0,0-3.54,5.66c-2,4.35-1.26,8.4,1.69,12.23,1.06,1.38,2.17,3.38,1.95,4.91s-1.82,3.25-3.27,4c-1.79,1-3.87.38-5.44-1.24-6-6.19-8-13.45-5.13-21.59a43.93,43.93,0,0,1,5.72-10.36c4.13-5.78,6.44-11.83,4.13-18.86a35.39,35.39,0,0,0-3.22-6.27c-1.76-3.09-1.34-5.87,1.26-7.52s5.31-1,7.36,2A30.47,30.47,0,0,1,296.94,188Z"/><path class="cls-1" d="M86,219.17c0-6.2,2.25-11.23,5.5-15.92,2.47-3.57,5.07-7,6-11.48,1.06-5.22-.21-9.84-2.93-14.22A12.87,12.87,0,0,1,93,174.62a5.14,5.14,0,0,1,3-6.13c2.28-1,4.48-.45,6.14,2,6.73,9.93,8.36,20.38,2.55,31.3a88.87,88.87,0,0,1-5.36,8.07,15.22,15.22,0,0,0-3,9.41c.14,2.92,1.62,5.13,3.45,7.24a5.07,5.07,0,0,1,.61,6.24,4.61,4.61,0,0,1-5.49,2.15,6.31,6.31,0,0,1-2.79-1.71C88.19,229.21,85.87,224.52,86,219.17Z"/><path class="cls-1" d="M145.93,189.22c.18,5.93-2.33,11.76-6.21,17.15a45.79,45.79,0,0,0-4.53,7.23,10.72,10.72,0,0,0,1.65,12.18,11.36,11.36,0,0,1,.95,1.15c1.72,2.55,1.44,5.22-.72,7a5.17,5.17,0,0,1-7.08-.52c-5.86-6-8.05-13.15-5.16-21.21a34.24,34.24,0,0,1,5.4-10.1c6.44-7.85,7.32-18.14,1.35-25.76a5,5,0,0,1,1.33-7.46c2.51-1.62,4.93-1,7.11,1.72C143.62,175.19,145.91,182.08,145.93,189.22Z"/></g></g></svg>