<svg xmlns="http://www.w3.org/2000/svg" viewBox="0 0 104.25 134.03"><defs><style>.cls-1{fill:#fff;}</style></defs><g id="Layer_2" data-name="Layer 2"><g id="Layer_1-2" data-name="Layer 1"><path class="cls-1" d="M97.62,62.1c.77,1.93-.12,3.56.12,5.24.94,1.27,2.4.64,3.64.87a3.26,3.26,0,0,1,2.87,2.61c-1,3.9-4.68,1.74-7.61,3.09a47,47,0,0,1-22.35,28.16c4.83,9.87,9.53,19.45,14.26,29.1-1.09,1.64-2.9,2-4.86,2.86l-6.45-12.58H27.4c-3,3.42-3.9,8.38-6.9,12.42a12.23,12.23,0,0,1-4.94-2.4l14.35-29.29C18.76,95.56,11.22,86.09,7.77,74.12c-2.6-2-6.39.77-7.77-3.07.49-4,4.14-2.25,6.24-3.34.74-1.78-.46-3.63.51-5.61ZM75,117.09c-2-4.69-3.69-8.71-6.17-12.32a57.47,57.47,0,0,1-16.66,3c-5.84,0-11.32-1.49-17-3-2,4.15-4.44,7.76-5.46,12.34Z"/><path class="cls-1" d="M53.16,0c5.78,2.56,7.38,10.79,6.11,16.82a56.34,56.34,0,0,1-4.09,11.65c-5.25,11.65-5.4,13.4-2.06,25.19-5.56-3.26-8.63-11-7.25-18.66a45.91,45.91,0,0,1,4.39-12.53C55.89,11.35,55.83,11.21,53.16,0Z"/><path class="cls-1" d="M66.18,51.42c-4-3.5-5.22-7.87-4.26-12.93a30.33,30.33,0,0,1,4.09-10c2.72-4.45,4-9,1.37-14.48,4.53,3.57,5.71,7.94,3.89,13.82a28.93,28.93,0,0,1-2.58,5.9A22.46,22.46,0,0,0,66.18,51.42Z"/><path class="cls-1" d="M37.8,4.72c4.8,3.82,5.47,8,4.17,12.94a30.29,30.29,0,0,1-2.46,6.44c-3.06,5.82-5.46,11.71-2.71,18.5-5.38-4.5-5.12-10.09-3.64-15.85a22.92,22.92,0,0,1,2.19-4.95C38.14,16.61,41.17,11.48,37.8,4.72Z"/></g></g></svg>