<svg xmlns="http://www.w3.org/2000/svg" viewBox="0 0 53.98 31.64"><defs><style>.cls-1{fill:#fff;}</style></defs><g id="Layer_2" data-name="Layer 2"><g id="Layer_1-2" data-name="Layer 1"><path class="cls-1" d="M54,18.7H6.92V2.32C6.92.52,6.42,0,4.68,0H2.29C.54,0,0,.54,0,2.3V13.1q0,8.16,0,16.32c0,1.62.55,2.18,2.14,2.2H4.78c1.6,0,2.13-.55,2.14-2.17,0-1.39,0-2.77,0-4.15H47.08c0,1.56,0,3,0,4.51a1.6,1.6,0,0,0,1.66,1.79c1.19.06,2.39,0,3.59,0A1.54,1.54,0,0,0,54,30C54,26.31,54,22.6,54,18.7Z"/><path class="cls-1" d="M21.68,16.73H53.91a4.72,4.72,0,0,0,.07-.54A10.7,10.7,0,0,0,43.7,5.72c-1.87,0-3.75,0-5.62,0H24.31c-1.5,0-2.56.65-2.6,1.91C21.61,10.64,21.68,13.68,21.68,16.73Z"/><path class="cls-1" d="M18.66,11.33a4.34,4.34,0,0,0-4.33-4.46,4.41,4.41,0,1,0,4.33,4.46Z"/></g></g></svg>