<svg xmlns="http://www.w3.org/2000/svg" viewBox="0 0 197.57 168.18"><defs><style>.cls-1{fill:#fff;}</style></defs><g id="Layer_2" data-name="Layer 2"><g id="Layer_1-2" data-name="Layer 1"><path class="cls-1" d="M99,0c27.48,0,55,0,82.44,0,4.73,0,8.76,1.25,12.14,5.52,7.38,9.33,4,24.66-6.39,28.1a22.25,22.25,0,0,1-6.89,1.09q-81.45.07-162.88,0c-7,0-12.86-2.36-16.07-10.41C-2.84,13.83,3.31,1.16,13.07.12A42,42,0,0,1,17.56,0Z"/><path class="cls-1" d="M98.81,168.16q-41.48,0-82.94,0c-4.34,0-8.1-1.12-11.35-4.89C.36,158.47-.78,152.72.58,146.42s5.1-10.58,10.62-12a25.41,25.41,0,0,1,6.41-.89q81.19-.06,162.38,0c6.72,0,12.57,2,15.94,9.67,4.79,10.86-1.42,24.09-11.69,25-1.49.13-3,.05-4.49.05Z"/><path class="cls-1" d="M98.59,101.45q-40.95,0-81.9,0c-4.12,0-8-.82-11.23-4A19.05,19.05,0,0,1,.63,79.31C2.64,72,7,67.91,13.37,66.87a28,28,0,0,1,4.49-.12H179.68c1.33,0,2.67-.07,4,.06,8.15.82,14,8.27,13.82,17.69-.14,9-6,16.2-14,16.9-1.49.13-3,0-4.49,0Z"/></g></g></svg>