<svg xmlns="http://www.w3.org/2000/svg" viewBox="0 0 800 635.07"><defs><style>.cls-1{fill:#fff;}</style></defs><g id="Layer_2" data-name="Layer 2"><g id="Capa_1" data-name="Capa 1"><circle class="cls-1" cx="400" cy="544.35" r="90.72"/><path class="cls-1" d="M400,302.41A242.6,242.6,0,0,0,203,403.86a40.32,40.32,0,0,0,65.62,46.88,161.32,161.32,0,0,1,262.71,0A40.32,40.32,0,1,0,597,403.86,242.54,242.54,0,0,0,400,302.41Z"/><path class="cls-1" d="M400,151.21A393.79,393.79,0,0,0,107.52,281.67a40.32,40.32,0,1,0,60,53.9,312.45,312.45,0,0,1,465,0,40.32,40.32,0,0,0,60-53.9A393.79,393.79,0,0,0,400,151.21Z"/><path class="cls-1" d="M788.45,163.06C685.23,57.91,547.28,0,400,0S114.77,57.91,11.55,163.06a40.32,40.32,0,0,0,57.54,56.5C157,130,274.55,80.64,400,80.64S643,130,730.9,219.55a40.32,40.32,0,1,0,57.55-56.49Z"/></g></g></svg>