<svg xmlns="http://www.w3.org/2000/svg" viewBox="0 0 280.18 245.58"><defs><style>.cls-1{fill:#fff;}</style></defs><g id="Layer_2" data-name="Layer 2"><g id="Layer_1-2" data-name="Layer 1"><path class="cls-1" d="M269,84.67A137.91,137.91,0,0,0,229.12,31.8,138.73,138.73,0,0,0,115.42,2.34,137.8,137.8,0,0,0,38,44.69a140.51,140.51,0,0,0-26.8,41.14C4.52,101.5,1.39,117.86.17,134.7c-.75,10.35,1.11,20.55,2.16,30.79.16,1.52,1,3,1.64,5,7.28-4.16,13-9.16,19.27-13.61C20.42,134.94,23,114,31.5,94A117.44,117.44,0,0,1,70.35,44.91a113.07,113.07,0,0,1,59-22.31c32.63-2.65,62.23,5.83,87.18,27.3C247.55,76.63,261.16,111,258.11,152l18.78,13.34c.75-.84,1.22-1.16,1.35-1.58a13.34,13.34,0,0,0,.8-3.37c.42-8,.88-15.92,1.11-23.89C280.65,118.32,276.09,101.13,269,84.67Z"/><path class="cls-1" d="M222.31,213.5A111,111,0,0,1,200.59,219c-8,1.13-16.23,1.07-24.37,1.24-11.7.24-22.62-3.18-33.32-7.54-10.93-4.46-21.75-9.25-32.87-13.15-10.18-3.57-20.62-6.49-31.1-9a99.68,99.68,0,0,0-21.14-3.06,76.06,76.06,0,0,0-41.42,10.84c-4.94,3-9.56,6.45-14.33,9.69l.36,1.24c2.3,0,4.61,0,6.91,0,9.8.22,19.62-.6,29.39,1a228.65,228.65,0,0,1,34.85,8.17c14.62,4.83,28.27,11.73,41.87,18.69A78.22,78.22,0,0,0,141,244.79c9.33,1.21,19,.86,28.41.1,11.81-.95,23.1-4.65,34.12-8.94,19.66-7.63,36.66-19.4,51.92-33.81a14.11,14.11,0,0,0,1.49-2.6l-3.2,1.32C243.31,205.11,233,209.72,222.31,213.5Z"/><path class="cls-1" d="M164,143.06q22.14,15.34,44.27,30.71a13.74,13.74,0,0,0,2.26,1l12.74-4.24a30.38,30.38,0,0,0-2.68-2.54q-33.69-23.18-67.42-46.31c-3.15-2.16-6.16-4.56-9.44-6.51-5.93-3.55-11.86-3.85-17.71.47-4.28,3.16-8.67,6.17-13.07,9.16-3.94,2.67-8,5.22-12.28,8-.38-2.43-.65-4.19-.9-5.77-4.83-3-7.32-2.93-11.89.71v14.07l-57.4,41a13.13,13.13,0,0,0,2.42.2c6.52-1.22,13-2.4,19.52-3.76A13.11,13.11,0,0,0,57,177.4c7.87-5.27,15.69-10.64,23.49-16q18.89-13,37.74-26.07c3-2.08,6-4.16,9.16-6,5.87-3.54,11.72-3.21,17.35.58Q154.39,136.39,164,143.06Z"/><path class="cls-1" d="M212,180.4c-14,5.12-28,9.64-43.11,8.79-7.6-.43-15.18-1.2-22.5-3.58-4.83-1.56-9.71-2.94-14.69-4.44.16.55.14,1,.34,1.13,6.46,4.38,12.88,8.82,19.44,13,1.61,1,3.69,1.33,5.56,2l2.31,1.34v.56l.85-.06,1.85,1.07c0-.32,0-.65,0-1l0,0,0-.05,1,1c3.16,1.41,6.19,3.27,9.49,4.11,4.95,1.26,10.09,2.57,15.13,2.48,7.64-.13,15.08-2.17,22.33-4.72,11-3.85,22-7.69,33-11.3,4.56-1.49,9.29-2.48,14-3.51A90.12,90.12,0,0,1,278.25,185c.2,0,.41-.42.94-1-6.92-6.83-15.13-11-24.91-11.68C239.52,171.36,225.61,175.41,212,180.4Zm-52.94,15.83h-.31l.31,0Zm.29.27-.22-.23h.22Z"/><path class="cls-1" d="M134,153.27c-6.46-1.43-8.61.64-7.08,6.49H134Z"/><path class="cls-1" d="M142.45,153.37l-7.08-.47v6.93h7.75C142.88,157.52,142.69,155.71,142.45,153.37Z"/><path class="cls-1" d="M142.74,161.49H135.6v6.89l7.52-.52C143,165.38,142.86,163.51,142.74,161.49Z"/><path class="cls-1" d="M126.2,168h7.52V161.6h-7.23C126.39,163.83,126.31,165.61,126.2,168Z"/><path class="cls-1" d="M162.08,200.23l0,0v.06h1.06l0,0h-1Z"/></g></g></svg>